<svg width="19" height="18" viewBox="0 0 19 18" fill="none" xmlns="http://www.w3.org/2000/svg">
<g clip-path="url(#clip0_1326_2353)">
<path d="M7.78857 1.99854C7.83643 1.99856 7.88316 2.01257 7.92334 2.03857C7.96358 2.06469 7.99558 2.1022 8.01514 2.146L8.01611 2.14795L9.8667 6.24365L9.98779 6.51221L10.2827 6.53564L14.5581 6.87549C14.6069 6.87942 14.6533 6.89816 14.6919 6.92822C14.7112 6.94324 14.7287 6.96029 14.7427 6.97998L14.7749 7.04541C14.8066 7.14047 14.7795 7.24394 14.7056 7.31104L11.3042 10.3726L11.0718 10.5815L11.1577 10.8823L12.5288 15.6792V15.6802C12.5427 15.7295 12.5416 15.7822 12.5249 15.8306C12.5082 15.879 12.4764 15.9215 12.4351 15.9517C12.3938 15.9816 12.3444 15.9983 12.2935 15.9995C12.2423 16.0006 12.1916 15.9858 12.1489 15.9575H12.1499L8.06592 13.2358L7.78857 13.0503L7.51123 13.2358L3.42725 15.9575V15.9585C3.38558 15.9864 3.33576 16.0009 3.28564 16.0005C3.23578 16 3.18706 15.9848 3.146 15.9565C3.10476 15.9281 3.07327 15.8871 3.05518 15.8403C3.04617 15.817 3.04031 15.7927 3.03857 15.7681L3.04443 15.6938L4.16162 10.855L4.2251 10.5806L4.02393 10.3843L0.86377 7.3042C0.829426 7.27071 0.805199 7.22789 0.794434 7.18115C0.783682 7.13433 0.786898 7.08473 0.803223 7.03955C0.819566 6.99449 0.849091 6.95534 0.887207 6.92627C0.925385 6.89718 0.971191 6.87928 1.01904 6.87549L5.29443 6.53564L5.58936 6.51221L5.71045 6.24365L7.56104 2.14697L7.56201 2.14502C7.58164 2.10145 7.61369 2.06454 7.65381 2.03857C7.69402 2.01261 7.7407 1.99851 7.78857 1.99854Z" stroke="#FFBB00"/>
</g>
<defs>
<clipPath id="clip0_1326_2353">
<rect width="18.3462" height="18" fill="white"/>
</clipPath>
</defs>
</svg>
